<svg id="Layer_1" data-name="Layer 1" xmlns="http://www.w3.org/2000/svg" xmlns:xlink="http://www.w3.org/1999/xlink" viewBox="0 0 16 16"><defs><style>.cls-1{fill:none;}.cls-2{clip-path:url(#clip-path);}.cls-3{fill:#0a1826;}.cls-4{fill:#fc0;}.cls-5{fill:#ffda40;}.cls-6{fill:#f1e3a7;}</style><clipPath id="clip-path"><rect class="cls-1" width="16" height="16"/></clipPath></defs><title>Untitled-1</title><g class="cls-2"><polyline class="cls-3" points="12.41 12.71 14.03 12.71 10.98 7.78 13.68 3.29 12.07 3.29 12.09 3.29 9.39 7.78 12.44 12.71"/><polyline class="cls-4" points="3.57 12.71 6.62 7.78 3.92 3.29 3.93 3.29 2.33 3.29 5.03 7.78 1.97 12.71 3.59 12.71"/><polyline class="cls-5" points="5.65 12.71 8.7 7.78 6 3.29 6.02 3.29 4.41 3.29 7.11 7.78 4.06 12.71 5.68 12.71"/><polyline class="cls-6" points="7.69 12.71 10.74 7.78 8.04 3.29 8.06 3.29 6.45 3.29 9.15 7.78 6.1 12.71 7.71 12.71"/></g></svg>
